<svg xmlns:dc="http://purl.org/dc/elements/1.1/" xmlns:cc="http://creativecommons.org/ns#" xmlns:rdf="http://www.w3.org/1999/02/22-rdf-syntax-ns#" xmlns:svg="http://www.w3.org/2000/svg" xmlns="http://www.w3.org/2000/svg" xmlns:sodipodi="http://sodipodi.sourceforge.net/DTD/sodipodi-0.dtd" xmlns:inkscape="http://www.inkscape.org/namespaces/inkscape" viewBox="0 0 8.4666667 10.583333625" version="1.1" x="0px" y="0px"><svg:g><svg:path style="color:#000000;font-style:normal;font-variant:normal;font-weight:normal;font-stretch:normal;font-size:medium;line-height:normal;font-family:sans-serif;font-variant-ligatures:normal;font-variant-position:normal;font-variant-caps:normal;font-variant-numeric:normal;font-variant-alternates:normal;font-feature-settings:normal;text-indent:0;text-align:start;text-decoration:none;text-decoration-line:none;text-decoration-style:solid;text-decoration-color:#000000;letter-spacing:normal;word-spacing:normal;text-transform:none;writing-mode:lr-tb;direction:ltr;text-orientation:mixed;dominant-baseline:auto;baseline-shift:baseline;text-anchor:start;white-space:normal;shape-padding:0;clip-rule:nonzero;display:inline;overflow:visible;visibility:visible;opacity:1;isolation:auto;mix-blend-mode:normal;color-interpolation:sRGB;color-interpolation-filters:linearRGB;solid-color:#000000;solid-opacity:1;vector-effect:none;fill:#000000;fill-opacity:1;fill-rule:nonzero;stroke:none;stroke-width:0.52933764;stroke-linecap:square;stroke-linejoin:round;stroke-miterlimit:4;stroke-dasharray:none;stroke-dashoffset:19.6000042;stroke-opacity:1;paint-order:normal;color-rendering:auto;image-rendering:auto;shape-rendering:auto;text-rendering:auto;enable-background:accumulate" d="m 2.9376185,0.11633418 a 0.26469525,0.26469525 0 0 0 -0.08404,0.0153 c -0.821936,0.293413 -1.533208,0.833672 -2.03637004,1.54676502 -0.503161,0.71309 -0.773727,1.564316 -0.774632,2.437053 a 0.26469525,0.26469525 0 0 0 0,2.65e-4 c 0,1.123017 0.446227,2.200302 1.24031604,2.99439 0.794089,0.794089 1.871375,1.240316 2.994385,1.240316 a 0.26469525,0.26469525 0 0 0 1.01e-4,0 c 0.97024,-3.7e-4 1.91106,-0.333973 2.664807,-0.944898 0.753746,-0.610927 1.27491,-1.462291 1.476158,-2.41143 a 0.26469525,0.26469525 0 0 0 -0.348662,-0.303885 c -0.399466,0.143991 -0.820704,0.218241 -1.245324,0.21952 -0.982697,-9.4e-5 -1.924853,-0.390395 -2.619732,-1.085273 -0.694916,-0.694917 -1.085221,-1.637137 -1.085273,-2.619892 5.03e-4,-0.25825302 0.02798,-0.51574802 0.08202,-0.76828602 a 0.26469525,0.26469525 0 0 0 -0.263764,-0.31999 z m -0.328601,0.694996 c -0.01237,0.13042 -0.01875,0.26142002 -0.01899,0.39260002 a 0.26469525,0.26469525 0 0 0 0,4.87e-4 c 0,1.123009 0.446224,2.200296 1.240314,2.994384 0.794088,0.79409 1.871375,1.240316 2.994386,1.240316 a 0.26469525,0.26469525 0 0 0 7.67e-4,0 c 0.32095,-9.26e-4 0.640208,-0.03838 0.951706,-0.111193 -0.22527,0.650762 -0.628582,1.228963 -1.16831,1.666424 -0.659574,0.534598 -1.482585,0.826438 -2.331601,0.826789 -1.6e-5,0 -3.2e-5,0 -4.9e-5,0 -0.982807,-1.2e-5 -1.925087,-0.390324 -2.620039,-1.085275 -0.69492904,-0.69493 -1.08523704,-1.637177 -1.08527304,-2.619954 8.21e-4,-0.763652 0.23753,-1.508318 0.67780304,-2.13228 0.35152,-0.498184 0.819041,-0.899894 1.359288,-1.17229502 z"/></svg:g><text x="0" y="23.4666669" fill="#000000" font-size="5px" font-weight="bold" font-family="'Helvetica Neue', Helvetica, Arial-Unicode, Arial, Sans-serif">Created by Larea</text><text x="0" y="28.4666669" fill="#000000" font-size="5px" font-weight="bold" font-family="'Helvetica Neue', Helvetica, Arial-Unicode, Arial, Sans-serif">from the Noun Project</text></svg>